<svg id="car" width="512" height="368" viewBox="0 0 512 368" fill="none" xmlns="http://www.w3.org/2000/svg">
    <path d="M305.022 271.978H300.522H157.972H155.38L154.079 269.736C144.649 253.475 128.096 241.867 108.744 239.19L108.736 239.189C108.376 239.139 108.006 239.094 107.599 239.045C107.021 238.975 106.489 238.913 105.964 238.864L105.959 238.864C105.247 238.796 104.525 238.742 103.793 238.699L103.79 238.699C103.524 238.683 103.253 238.67 102.947 238.656L305.022 271.978ZM305.022 271.978V267.478M305.022 271.978V267.478M305.022 267.478V200.695V196.195H300.522H33.392H28.892V200.695V267.478V271.978H33.392H42.376H44.9683L46.2688 269.735C55.699 253.474 72.2515 241.867 91.6044 239.191L91.6136 239.189C91.9702 239.139 92.3311 239.096 92.7581 239.044C93.323 238.975 93.8566 238.914 94.3829 238.864C95.1024 238.797 95.8252 238.742 96.5502 238.699C96.8397 238.683 97.1157 238.668 97.3865 238.657L97.3973 238.656M305.022 267.478L97.3973 238.656M97.3973 238.656C98.3469 238.613 99.2671 238.585 100.174 238.585C101.077 238.585 101.993 238.614 102.947 238.656L97.3973 238.656ZM503.927 142.001L503.928 142.001C506.215 144.288 507.501 147.392 507.503 150.628V184V284.174C507.503 290.909 502.042 296.37 495.307 296.37H478.611H474.111V300.87C474.111 335.209 446.167 363.153 411.828 363.153C377.489 363.153 349.545 335.209 349.545 300.87V296.37H345.045H317.219H166.958H162.458V300.87C162.458 335.209 134.514 363.153 100.175 363.153C65.8363 363.153 37.892 335.209 37.892 300.87V296.37H33.392H16.696C9.96045 296.37 4.5 290.909 4.5 284.174V17.0439C4.5 10.3082 9.96028 4.8479 16.696 4.8479H317.217C323.953 4.8479 329.413 10.309 329.413 17.0439V67.1289V71.6289H333.913H395.13H428.505C431.739 71.6289 434.84 72.9142 437.128 75.2019L503.927 142.001ZM64.0776 289.566L63.904 289.918L63.7942 290.296C62.8183 293.649 62.283 297.197 62.283 300.87C62.283 321.767 79.2767 338.761 100.174 338.761C121.071 338.761 138.065 321.766 138.066 300.87C138.066 297.197 137.532 293.651 136.555 290.295L136.444 289.916L136.27 289.563C136.033 289.081 135.848 288.66 135.707 288.263L135.705 288.257C130.698 274.166 117.95 264.367 103.335 263.12C103.177 263.106 103.025 263.095 102.907 263.086C102.03 263.021 101.117 262.978 100.174 262.978C99.2314 262.978 98.318 263.021 97.4415 263.086C97.3037 263.096 97.169 263.107 97.055 263.116L97.0421 263.117L97.0306 263.118L97.0191 263.119C82.4027 264.364 69.6518 274.165 64.6438 288.257L64.6424 288.261C64.5015 288.658 64.3162 289.081 64.0776 289.566ZM305.022 83.8259V79.3259H305.021V33.7389V29.2389H300.521H33.391H28.891V33.7389V167.304V171.804H33.391H300.522H305.022V167.304V83.8259ZM375.732 289.562L375.557 289.917L375.446 290.298C374.47 293.652 373.935 297.197 373.935 300.87C373.935 321.767 390.929 338.761 411.826 338.761C432.723 338.761 449.717 321.766 449.717 300.87C449.717 297.197 449.182 293.653 448.209 290.301L448.099 289.922L447.924 289.568C447.687 289.085 447.5 288.66 447.357 288.257C442.35 274.165 429.603 264.367 414.988 263.12C414.829 263.106 414.678 263.095 414.56 263.086C413.683 263.021 412.77 262.978 411.827 262.978C410.884 262.978 409.971 263.021 409.094 263.086C408.951 263.097 408.811 263.108 408.694 263.117L408.683 263.118L408.671 263.119C394.056 264.364 381.304 274.165 376.297 288.257C376.153 288.663 375.966 289.088 375.732 289.562ZM478.609 271.978H483.109L483.109 267.478L483.11 200.696L483.11 196.196H478.61H395.132C388.396 196.196 382.936 190.735 382.936 184V100.522V96.0219H378.436H333.914H329.414V100.522V267.478V271.978H333.914H354.029H356.621L357.922 269.735C367.352 253.474 383.904 241.867 403.257 239.191L403.267 239.189C403.578 239.145 403.892 239.107 404.252 239.063L404.409 239.044C404.975 238.975 405.51 238.914 406.037 238.864C406.755 238.797 407.478 238.742 408.203 238.699C408.492 238.683 408.769 238.668 409.04 238.657L409.05 238.656C410 238.613 410.919 238.585 411.827 238.585C412.733 238.585 413.65 238.613 414.6 238.656C414.907 238.67 415.178 238.683 415.443 238.699L415.446 238.699C416.178 238.742 416.9 238.796 417.612 238.864L417.617 238.864C418.142 238.913 418.674 238.975 419.252 239.045C419.659 239.094 420.029 239.139 420.389 239.189L420.397 239.19C439.749 241.867 456.301 253.475 465.732 269.736L467.033 271.978H469.625H478.609ZM478.609 171.804H483.109V167.304V157.54V155.676L481.791 154.358L424.772 97.3389L423.454 96.0209H421.59H411.826H407.326V100.521V167.304V171.804H411.826H478.609Z" fill="white" stroke="#181717" stroke-width="9" />
</svg>