<svg id="logotip" width="207" height="87" viewBox="0 0 207 87" fill="none" xmlns="http://www.w3.org/2000/svg">
<path d="M71.2424 46.2L3.75 46" stroke="#CFC7C7" stroke-width="3.77953" stroke-linecap="square"/>
<path d="M71.2422 31.3V61.1" stroke="#CFC7C7" stroke-width="7.55906"/>
<path d="M73.0105 55.3L195 67.5V81.6" fill="#800000"/>
<path d="M73.0105 55.3L195 67.5V81.6" stroke="#CFC7C7" stroke-width="3.77953" stroke-linecap="square"/>
<path d="M73.0105 37.1L195 24.9V10.8" fill="#800000"/>
<path d="M73.0105 37.1L195 24.9V10.8" stroke="#CFC7C7" stroke-width="3.77953" stroke-linecap="square"/>
<path d="M177.91 65.8L121.924 65.1L134.889 61.4001L147.854 57.8L177.91 65.8Z" fill="#CFC7C7"/>
<path d="M0.64 7.576V4.6H9.44V7.576H6.56V27H3.52V7.576H0.64ZM20.468 11V12.408L21.332 11H23.476V14.104H20.468V27H17.428V13.976H16.66L16.98 11H20.468ZM35.3645 27C34.3832 27 33.5938 26.7227 32.9965 26.168C32.4205 25.592 32.1325 24.8773 32.1325 24.024V13.976C32.1325 13.1013 32.4205 12.3867 32.9965 11.832C33.5938 11.2773 34.3832 11 35.3645 11H35.4925C36.0685 11 36.5805 11.1387 37.0285 11.416V11H40.0685V24.024H40.5165L40.8365 27H37.0285V25.752L36.2285 27H35.3645ZM35.3325 13.976C35.2258 13.976 35.1725 14.0293 35.1725 14.136V23.864C35.1725 23.9707 35.2258 24.024 35.3325 24.024H37.0285V13.976H35.3325ZM49.9205 27V13.976H49.1525L49.4725 11H52.9605V12.248L53.7605 11H54.6245C55.6058 11 56.3845 11.2773 56.9605 11.832C57.5578 12.3867 57.8565 13.1013 57.8565 13.976V24.024H58.6565L58.3365 27H54.8165V14.136C54.8165 14.0293 54.7632 13.976 54.6565 13.976H52.9605V27H49.9205ZM67.4688 21.976L70.5088 22.296V23.864C70.5088 23.9707 70.5621 24.024 70.6688 24.024H71.9488C72.0554 24.024 72.1088 23.9707 72.1088 23.864V20.888L69.2608 19.672C68.9194 19.5227 68.5354 19.288 68.1088 18.968C67.6821 18.648 67.4688 18.1253 67.4688 17.4V13.848C67.4688 12.952 67.7461 12.2373 68.3008 11.704C68.8554 11.1493 69.5808 10.872 70.4768 10.872H72.1408C73.0368 10.872 73.7621 11.1493 74.3168 11.704C74.8714 12.2373 75.1488 12.952 75.1488 13.848V15.896L72.1088 15.576V14.008C72.1088 13.9013 72.0554 13.848 71.9488 13.848H70.6688C70.5621 13.848 70.5088 13.9013 70.5088 14.008V16.984L73.3568 18.2C73.6981 18.3493 74.0821 18.584 74.5088 18.904C74.9354 19.224 75.1488 19.7467 75.1488 20.472V24.024C75.1488 24.92 74.8714 25.6453 74.3168 26.2C73.7621 26.7333 73.0368 27 72.1408 27H70.4768C69.5808 27 68.8554 26.7333 68.3008 26.2C67.7461 25.6453 67.4688 24.92 67.4688 24.024V21.976Z" fill="#CFC7C7"/>
<path d="M3.68 75.6V78.992C3.68 79.0987 3.73333 79.152 3.84 79.152H5.12C5.22667 79.152 5.28 79.0987 5.28 78.992V73.232L2.752 72.112C2.56 72.048 2.29333 71.9413 1.952 71.792C1.61067 71.6213 1.30133 71.376 1.024 71.056C0.768 70.736 0.64 70.2987 0.64 69.744V62.448C0.64 61.552 0.917333 60.8373 1.472 60.304C2.02667 59.7493 2.752 59.472 3.648 59.472H5.312C6.208 59.472 6.93333 59.7493 7.488 60.304C8.04267 60.8373 8.32 61.552 8.32 62.448V67.184L5.28 66.928V62.608C5.28 62.5013 5.22667 62.448 5.12 62.448H3.84C3.73333 62.448 3.68 62.5013 3.68 62.608V69.296L6.208 70.416C6.4 70.5013 6.66667 70.6187 7.008 70.768C7.34933 70.9173 7.648 71.152 7.904 71.472C8.18133 71.792 8.32 72.2293 8.32 72.784V79.152C8.32 80.048 8.04267 80.7733 7.488 81.328C6.93333 81.8613 6.208 82.128 5.312 82.128H3.648C2.752 82.128 2.02667 81.8613 1.472 81.328C0.917333 80.7733 0.64 80.048 0.64 79.152V75.6H3.68ZM23.8168 79.024V82H21.9608C21.0647 82 20.3394 81.7333 19.7847 81.2C19.2301 80.6453 18.9527 79.92 18.9527 79.024V68.976H17.6087L17.8647 66H18.9527V62.576H18.1527L18.4087 59.6H21.9927V66H23.8168L23.5608 68.976H21.9927V79.024H23.8168ZM38.2162 69.008C38.2162 68.9013 38.1629 68.848 38.0562 68.848H36.1362C36.0296 68.848 35.9762 68.9013 35.9762 69.008V78.992C35.9762 79.0987 36.0296 79.152 36.1362 79.152H38.0562C38.1629 79.152 38.2162 79.1093 38.2162 79.024V69.008ZM32.9362 79.152V68.848C32.9362 67.952 33.2136 67.2373 33.7682 66.704C34.3229 66.1493 35.0482 65.872 35.9442 65.872H38.2482C39.1442 65.872 39.8696 66.1493 40.4242 66.704C40.9789 67.2373 41.2562 67.952 41.2562 68.848V79.152C41.2562 80.048 40.9789 80.7733 40.4242 81.328C39.8696 81.8613 39.1442 82.128 38.2482 82.128H35.9442C35.0482 82.128 34.3229 81.8613 33.7682 81.328C33.2136 80.7733 32.9362 80.048 32.9362 79.152ZM54.338 66V67.408L55.202 66H57.346V69.104H54.338V82H51.298V68.976H50.53L50.85 66H54.338ZM66.6387 79.152V68.848C66.6387 67.952 66.9161 67.2373 67.4707 66.704C68.0254 66.1493 68.7507 65.872 69.6467 65.872H71.6307C72.5267 65.872 73.2521 66.1493 73.8067 66.704C74.3614 67.2373 74.6387 67.952 74.6387 68.848V72.784H71.5987V69.008C71.5987 68.9013 71.5454 68.848 71.4387 68.848H69.8387C69.7321 68.848 69.6787 68.9013 69.6787 69.008V72.784H74.6387V75.76H69.6787V78.992C69.6787 79.0987 69.7321 79.152 69.8387 79.152H71.4387C71.5454 79.152 71.5987 79.1093 71.5987 79.024V77.264H74.6387V79.152C74.6387 80.048 74.3614 80.7733 73.8067 81.328C73.2521 81.8613 72.5267 82.128 71.6307 82.128H69.6467C68.7507 82.128 68.0254 81.8613 67.4707 81.328C66.9161 80.7733 66.6387 80.048 66.6387 79.152Z" fill="#CFC7C7"/>
</svg>
