<svg id="svaz" width="26" height="32" viewBox="0 0 26 32" fill="white" xmlns="http://www.w3.org/2000/svg">
    <path d="M12.945 32.002L8.94499 24.629H0.359985V0H25.64V24.629H16.945L12.945 32.002ZM1.35999 23.629H9.54099L12.945 29.904L16.349 23.629H24.64V1H1.35999V23.629Z" fill="white" />
    <path d="M12.933 12.764C12.542 12.402 12.108 11.893 11.92 11.444C11.891 11.386 11.833 11.241 11.92 11.125C12.094 10.893 12.123 10.878 12.311 10.661C12.441 10.501 12.543 10.356 12.499 10.226L11.848 8.52802C11.79 8.41202 11.616 8.39702 11.414 8.38302C11.24 8.38302 11.052 8.38302 10.922 8.41202C10.633 8.51402 10.039 9.29702 9.96697 9.86302C9.80797 11.096 10.922 12.736 12.037 13.752C13.152 14.782 14.874 15.755 16.09 15.479C16.655 15.349 17.379 14.696 17.436 14.391C17.465 14.261 17.45 14.072 17.422 13.898C17.408 13.695 17.364 13.55 17.248 13.492L15.772 12.81C15.641 12.737 15.511 12.796 15.381 12.955C15.222 13.172 15.149 13.259 14.961 13.492C14.86 13.622 14.787 13.71 14.672 13.724C14.541 13.753 14.368 13.681 14.339 13.681C13.874 13.519 13.338 13.127 12.933 12.764ZM8.06997 17.974L8.90997 15.841C7.98297 14.767 7.41897 13.359 7.41897 11.821C7.41897 8.42502 10.169 5.68302 13.557 5.68302C16.944 5.68302 19.68 8.42602 19.68 11.821C19.68 15.217 16.944 17.974 13.557 17.974C12.196 17.974 10.951 17.539 9.93797 16.784L8.06997 17.974ZM7.04197 15.885L5.88397 20.529L10.024 18.642C11.081 19.193 12.282 19.513 13.556 19.513C17.782 19.513 21.213 16.073 21.213 11.822C21.213 7.58502 17.782 4.14502 13.556 4.14502C9.31397 4.14502 5.88397 7.58402 5.88397 11.822C5.88397 13.316 6.31797 14.709 7.04197 15.885Z" fill="white" />
</svg>